<svg xmlns="http://www.w3.org/2000/svg" width="100" height="100"><g transform="scale(0.078125,0.078125)"><path d="M644 1136q36 24 83 24q47 0 98 -49l83 -81q133 -129 258 -260l124 -130l-124 -130q-125 -131 -258 -260l-89 -86q-45 -44 -87 -44l-10 0q-32 0 -52 8q-20 8 -40 24q-21 17 -38 38q-16 20 -24 40q-8 20 -8 50q0 30 8 50q9 21 28 44q19 24 52 55l53 51l-532 0q-49 0 -77 16q-28 17 -44 32q-15 16 -32 44q-16 28 -16 68q0 40 16 68q17 28 32 44q16 15 44 32q28 16 77 16l524 0l-86 95q-47 52 -47 99q0 46 24 82q25 35 60 60" fill="black"/></g></svg>