<svg xmlns="http://www.w3.org/2000/svg" xmlns:xlink="http://www.w3.org/1999/xlink" xmlns:a="http://ns.adobe.com/AdobeSVGViewerExtensions/3.0/" version="1.1" x="0px" y="0px" width="32px" height="32px" viewBox="-8 0 32 32" overflow="visible" enable-background="new -8 0 32 32" xml:space="preserve">
<defs>
</defs>
<path id="arrow-down_1_" d="M8.707,31.707l7-7C15.898,24.516,16,24.26,16,24c0-0.129-0.024-0.26-0.076-0.383  C15.77,23.244,15.404,23,15,23h-5V1c0-0.553-0.447-1-1-1H7C6.447,0,6,0.447,6,1v22H1c-0.404,0-0.77,0.244-0.924,0.617  C0.023,23.74,0,23.871,0,24c0,0.26,0.102,0.516,0.293,0.707l7,7C7.684,32.098,8.316,32.098,8.707,31.707z"/>
</svg>