<svg xmlns="http://www.w3.org/2000/svg" xmlns:xlink="http://www.w3.org/1999/xlink" version="1.1" x="0px" y="0px" width="100px" height="100px" viewBox="0 0 100 100" enable-background="new 0 0 100 100" xml:space="preserve">
<g id="Captions">
</g>
<g id="Your_Icon">
	<rect x="23.766" y="58.294" fill="#000000" width="53.096" height="1.267"/>
	<rect x="23.766" y="65.344" fill="#000000" width="53.096" height="1.279"/>
	<rect x="56.888" y="15.284" fill="#000000" width="9.505" height="19.557"/>
	<rect x="23.766" y="72.01" fill="#000000" width="53.096" height="1.279"/>
	<path fill="#000000" d="M82.719,5.465H8.139C5.296,5.465,3,7.748,3,10.57v81.332C3,94.721,5.296,97,8.139,97h84.346   c2.839,0,5.139-2.279,5.139-5.098V20.116L82.719,5.465z M21.557,15.684c0-2.508,2.299-4.55,5.138-4.55h47.242   c2.831,0,5.135,2.042,5.135,4.55v18.68c0,2.512-2.304,4.55-5.135,4.55H26.694c-2.839,0-5.138-2.038-5.138-4.55V15.684z    M84.353,91.779H16.271V47.83h68.082V91.779z"/>
	<rect x="23.766" y="78.276" fill="#000000" width="53.096" height="1.282"/>
</g>
</svg>