<svg xmlns="http://www.w3.org/2000/svg" xmlns:xlink="http://www.w3.org/1999/xlink" version="1.1" x="0px" y="0px" width="100px" height="100px" viewBox="0 0 100 100" enable-background="new 0 0 100 100" xml:space="preserve">
<g id="Captions">
</g>
<g id="Your_Icon">
	<path d="M45.923,11.686L19.979,37.629c-2.231,2.232-2.231,5.852,0,8.081c2.23,2.232,5.85,2.232,8.082,0l16.188-16.188v54.92   c0,3.156,2.559,5.715,5.715,5.715s5.715-2.559,5.715-5.715v-54.92L71.866,45.71c2.23,2.232,5.851,2.232,8.082,0   c1.115-1.115,1.674-2.578,1.674-4.041c0-1.462-0.559-2.926-1.674-4.04L54.005,11.686C51.773,9.453,48.155,9.453,45.923,11.686z"/>
</g>
</svg>