<?xml version="1.0" encoding="UTF-8" standalone="no"?>
<svg
   xmlns:dc="http://purl.org/dc/elements/1.1/"
   xmlns:cc="http://creativecommons.org/ns#"
   xmlns:rdf="http://www.w3.org/1999/02/22-rdf-syntax-ns#"
   xmlns:svg="http://www.w3.org/2000/svg"
   xmlns="http://www.w3.org/2000/svg"
   xmlns:sodipodi="http://sodipodi.sourceforge.net/DTD/sodipodi-0.dtd"
   xmlns:inkscape="http://www.inkscape.org/namespaces/inkscape"
   version="1.1"
   id="Layer_1"
   x="0px"
   y="0px"
   width="45.454403"
   height="45.454372"
   viewBox="0 0 359.99887 359.99863"
   enable-background="new 0 0 612 792"
   xml:space="preserve"
   inkscape:version="0.48.2 r9819"
   sodipodi:docname="delete.svg"><metadata
   id="metadata11"><rdf:RDF><cc:Work
       rdf:about=""><dc:format>image/svg+xml</dc:format><dc:type
         rdf:resource="http://purl.org/dc/dcmitype/StillImage" /></cc:Work></rdf:RDF></metadata><defs
   id="defs9" /><sodipodi:namedview
   pagecolor="#ffffff"
   bordercolor="#666666"
   borderopacity="1"
   objecttolerance="10"
   gridtolerance="10"
   guidetolerance="10"
   inkscape:pageopacity="0"
   inkscape:pageshadow="2"
   inkscape:window-width="640"
   inkscape:window-height="480"
   id="namedview7"
   showgrid="false"
   fit-margin-top="0"
   fit-margin-left="0"
   fit-margin-right="0"
   fit-margin-bottom="0"
   inkscape:zoom="2.36"
   inkscape:cx="22.664031"
   inkscape:cy="22.790341"
   inkscape:window-x="246"
   inkscape:window-y="83"
   inkscape:window-maximized="0"
   inkscape:current-layer="Layer_1" />
<path
   d="m 52.720122,52.720125 c -70.294,70.294005 -70.293,184.264005 0,254.558005 70.292998,70.294 184.264998,70.294 254.558998,0 70.293,-70.293 70.293,-184.265 0,-254.558005 -70.295,-70.294 -184.266,-70.293 -254.558998,0 z M 281.82212,281.82313 c -56.235,56.229 -147.411,56.231 -203.645998,0 -56.236,-56.235 -56.235,-147.413 0,-203.647005 56.235998,-56.236 147.410998,-56.235 203.646998,-0.001 56.235,56.237005 56.235,147.412005 -0.001,203.648005 z"
   id="path3"
   inkscape:connector-curvature="0"
   style="fill:#000000" />
<path
   d="m 205.45412,180.00013 50.271,-50.272 c 7.03,-7.029 7.03,-18.426 0,-25.456 -7.025,-7.029005 -18.426,-7.029005 -25.454,0 l -50.272,50.272 -50.272,-50.273 c -7.029,-7.029005 -18.425,-7.029005 -25.456,0 -7.028998,7.029 -7.028998,18.426 0,25.456 l 50.272,50.272 -50.272,50.272 c -7.028998,7.027 -7.028998,18.426 0,25.453 3.515,3.518 8.121,5.272 12.728,5.272 4.606,0 9.213,-1.758 12.728,-5.272 l 50.272,-50.271 50.271,50.271 c 3.515,3.518 8.118,5.272 12.728,5.272 4.606,0 9.214,-1.758 12.728,-5.272 7.029,-7.027 7.03,-18.426 0,-25.453 l -50.272,-50.271 z"
   id="path5"
   inkscape:connector-curvature="0"
   style="fill:#000000" />
</svg>