<svg xmlns="http://www.w3.org/2000/svg" xmlns:xlink="http://www.w3.org/1999/xlink" version="1.1" x="0px" y="0px" width="100px" height="100px" viewBox="0 0 100 100" enable-background="new 0 0 100 100" xml:space="preserve">
<g id="Captions">
</g>
<g id="Your_Icon">
	<path d="M51.832,64.713c0-0.003,0.002-0.007,0.002-0.01C51.818,64.706,51.813,64.709,51.832,64.713z"/>
	<path d="M11.138,54.211l25.943,25.944c2.232,2.231,5.852,2.231,8.081,0c2.232-2.23,2.232-5.85,0-8.082L28.975,55.885h54.92   c3.156,0,5.715-2.559,5.715-5.715s-2.559-5.715-5.715-5.715h-54.92l16.188-16.188c2.232-2.23,2.232-5.851,0-8.082   c-1.115-1.115-2.579-1.674-4.041-1.674c-1.462,0-2.926,0.559-4.041,1.674L11.138,46.129C8.905,48.36,8.905,51.979,11.138,54.211z"/>
</g>
</svg>