<svg xmlns="http://www.w3.org/2000/svg" xmlns:xlink="http://www.w3.org/1999/xlink" version="1.1" id="Your_Icon" x="0px" y="0px" width="100px" height="100px" viewBox="0 0 100 100" enable-background="new 0 0 100 100" xml:space="preserve">
<path d="M50,14c-19.883,0-36,16.117-36,36s16.117,36,36,36s36-16.117,36-36S69.883,14,50,14z M50,23  c5.149,0,9.962,1.442,14.056,3.944L26.944,64.056C24.442,59.961,23,55.149,23,50C23,35.088,35.088,23,50,23z M50,77  c-5.149,0-9.962-1.442-14.056-3.944l37.111-37.111C75.558,40.039,77,44.851,77,50C77,64.912,64.912,77,50,77z"/>
</svg>