<svg xmlns="http://www.w3.org/2000/svg" xmlns:xlink="http://www.w3.org/1999/xlink" version="1.1" id="Your_Icon" x="0px" y="0px" width="100px" height="100px" viewBox="0 0 100 100" enable-background="new 0 0 100 100" xml:space="preserve">
<path d="M84.6,53.247c0.066-0.089,0.129-0.181,0.189-0.272c0.056-0.085,0.109-0.17,0.161-0.256c0.054-0.092,0.104-0.185,0.154-0.278  c0.048-0.092,0.095-0.185,0.138-0.278c0.043-0.092,0.083-0.184,0.12-0.277c0.04-0.099,0.078-0.197,0.113-0.297  c0.032-0.093,0.062-0.186,0.09-0.279c0.03-0.103,0.059-0.205,0.084-0.309c0.022-0.095,0.043-0.189,0.062-0.284  c0.02-0.104,0.038-0.208,0.054-0.313c0.014-0.097,0.024-0.193,0.034-0.29c0.01-0.104,0.018-0.208,0.022-0.312  c0.005-0.099,0.007-0.198,0.007-0.298c0-0.102-0.002-0.205-0.007-0.307c-0.005-0.101-0.013-0.202-0.022-0.302  s-0.021-0.201-0.035-0.302c-0.015-0.1-0.032-0.2-0.052-0.3s-0.04-0.2-0.064-0.299c-0.023-0.098-0.051-0.194-0.079-0.291  c-0.03-0.101-0.062-0.201-0.096-0.3c-0.032-0.092-0.067-0.183-0.104-0.273c-0.041-0.103-0.084-0.204-0.131-0.305  c-0.039-0.084-0.081-0.167-0.124-0.249c-0.055-0.104-0.111-0.207-0.172-0.309c-0.045-0.075-0.092-0.149-0.14-0.223  c-0.068-0.104-0.14-0.207-0.214-0.308c-0.051-0.068-0.104-0.135-0.157-0.202c-0.081-0.101-0.164-0.198-0.252-0.294  c-0.028-0.031-0.052-0.064-0.081-0.095l-21.09-22.264c-2.406-2.539-6.415-2.647-8.955-0.242c-2.539,2.406-2.646,6.415-0.241,8.954  l10.964,11.573H17.834c-3.498,0-6.333,2.835-6.333,6.333s2.835,6.334,6.333,6.334h46.941L53.812,67.408  c-2.405,2.539-2.298,6.547,0.242,8.953c2.539,2.406,6.548,2.297,8.954-0.242l21.09-22.264c0.034-0.036,0.063-0.076,0.097-0.112  c0.076-0.085,0.149-0.17,0.22-0.258C84.479,53.407,84.54,53.328,84.6,53.247z"/>
</svg>